<svg xmlns="http://www.w3.org/2000/svg" xmlns:xlink="http://www.w3.org/1999/xlink" width="500" zoomAndPan="magnify" viewBox="0 0 375 374.999991" height="500" preserveAspectRatio="xMidYMid meet" version="1.0"><defs><clipPath id="e33806f007"><path d="M 219 8.199219 L 267 8.199219 L 267 319 L 219 319 Z M 219 8.199219 " clip-rule="nonzero"/></clipPath><clipPath id="2a74333520"><path d="M 37.5 37 L 307 37 L 307 345.699219 L 37.5 345.699219 Z M 37.5 37 " clip-rule="nonzero"/></clipPath></defs><path fill="#a6a6a6" d="M 124.082031 200.007812 L 124.082031 318.882812 L 88.996094 298.644531 L 81.375 294.257812 L 77.597656 292.03125 L 77.597656 200.007812 Z M 124.082031 200.007812 " fill-opacity="1" fill-rule="nonzero"/><path fill="#a6a6a6" d="M 148.640625 125.117188 L 195.191406 125.117188 L 195.191406 331.296875 L 148.640625 331.296875 Z M 148.640625 125.117188 " fill-opacity="1" fill-rule="nonzero"/><g clip-path="url(#e33806f007)"><path fill="#a6a6a6" d="M 266.234375 8.199219 L 266.234375 291.222656 L 242.957031 305.054688 L 219.683594 318.953125 L 219.683594 8.199219 Z M 266.234375 8.199219 " fill-opacity="1" fill-rule="nonzero"/></g><g clip-path="url(#2a74333520)"><path fill="#b4b4b4" d="M 302.867188 112.367188 L 302.058594 111.894531 L 295.851562 108.320312 C 293.558594 111.558594 290.996094 115 288.226562 118.640625 L 293.289062 121.609375 L 293.289062 168.835938 C 297.875 163.914062 302.125 159.054688 306.039062 154.46875 L 306.039062 117.96875 C 306.039062 115.605469 304.824219 113.515625 302.867188 112.367188 Z M 298.414062 173.898438 C 296.730469 175.652344 295.042969 177.472656 293.289062 179.292969 L 293.289062 261.738281 L 272.914062 273.480469 L 266.234375 277.324219 L 219.679688 304.175781 L 213.003906 308.023438 L 195.191406 318.34375 L 172.859375 331.230469 L 171.980469 331.769531 L 171.105469 331.230469 L 148.707031 318.277344 L 124.148438 304.109375 L 105.796875 293.585938 L 98.308594 289.265625 L 91.023438 285.082031 L 77.597656 277.324219 L 70.648438 273.277344 L 63.089844 268.890625 L 55.738281 264.640625 L 50.542969 261.671875 L 50.542969 121.542969 L 171.914062 51.511719 L 213.003906 75.261719 L 213.003906 60.484375 L 175.085938 38.625 C 173.128906 37.480469 170.699219 37.480469 168.742188 38.625 L 40.960938 112.367188 C 39.003906 113.515625 37.789062 115.605469 37.789062 117.898438 L 37.789062 265.382812 C 37.789062 267.675781 39.003906 269.769531 40.960938 270.914062 L 45.886719 273.75 L 53.511719 278.203125 L 72.601562 289.199219 L 73.953125 289.941406 L 77.597656 292.03125 L 81.375 294.191406 L 88.996094 298.578125 L 124.082031 318.882812 L 168.742188 344.65625 C 169.757812 345.195312 170.835938 345.535156 171.914062 345.535156 C 172.996094 345.535156 174.140625 345.265625 175.085938 344.65625 L 219.683594 318.953125 L 246.804688 303.300781 L 266.167969 292.101562 L 272.847656 288.253906 L 302.800781 270.984375 C 304.757812 269.835938 305.972656 267.746094 305.972656 265.449219 L 305.972656 165.464844 C 303.609375 168.230469 301.046875 171.0625 298.414062 173.898438 Z M 298.414062 173.898438 " fill-opacity="1" fill-rule="nonzero"/></g><path fill="#f11414" d="M 358.597656 112.367188 L 342 103.460938 C 339.234375 107.980469 328.167969 128.15625 306.039062 154.398438 C 302.125 159.054688 297.875 163.84375 293.289062 168.769531 C 285.328125 177.339844 276.355469 186.242188 266.234375 195.351562 C 252.808594 207.359375 237.359375 219.640625 219.683594 231.515625 C 211.921875 236.710938 203.757812 241.90625 195.125 246.898438 C 180.820312 255.195312 165.371094 263.15625 148.570312 270.511719 C 140.675781 273.953125 132.515625 277.324219 124.011719 280.429688 C 115.714844 283.53125 107.078125 286.5 98.171875 289.265625 C 92.640625 291.019531 87.042969 292.640625 81.304688 294.257812 L 77.527344 292.101562 L 73.886719 290.007812 L 72.535156 289.265625 L 53.441406 278.269531 L 45.886719 273.75 C 46.695312 273.546875 47.574219 273.34375 48.382812 273.074219 C 53.375 271.726562 58.234375 270.375 63.089844 268.957031 C 68.015625 267.472656 72.875 265.988281 77.597656 264.371094 C 94.125 258.90625 109.574219 252.835938 124.148438 246.289062 C 132.648438 242.445312 140.8125 238.464844 148.707031 234.347656 C 165.707031 225.441406 181.15625 215.996094 195.257812 206.347656 C 203.960938 200.34375 212.125 194.203125 219.816406 188.132812 C 238.300781 173.359375 253.683594 158.515625 266.367188 144.75 C 274.9375 135.375 282.222656 126.601562 288.363281 118.640625 C 291.128906 115 293.691406 111.558594 295.988281 108.320312 C 301.925781 100.019531 306.308594 93.070312 309.277344 88.214844 C 309.683594 87.605469 310.019531 87 310.359375 86.390625 L 304.351562 83.152344 L 299.496094 80.589844 L 292.34375 76.746094 L 294.300781 75.53125 L 351.511719 40.042969 L 356.167969 37.140625 L 356.4375 45.238281 Z M 358.597656 112.367188 " fill-opacity="1" fill-rule="nonzero"/></svg>