<svg xmlns="http://www.w3.org/2000/svg" xmlns:xlink="http://www.w3.org/1999/xlink" width="500" zoomAndPan="magnify" viewBox="0 0 375 374.999991" height="500" preserveAspectRatio="xMidYMid meet" version="1.0"><defs><g/><clipPath id="3666285d76"><path d="M 197 89.097656 L 218 89.097656 L 218 228 L 197 228 Z M 197 89.097656 " clip-rule="nonzero"/></clipPath><clipPath id="24281fb22d"><path d="M 116.046875 102 L 236 102 L 236 239.097656 L 116.046875 239.097656 Z M 116.046875 102 " clip-rule="nonzero"/></clipPath><clipPath id="51ebe7705d"><path d="M 0.0390625 0.878906 L 253.480469 0.878906 L 253.480469 52 L 0.0390625 52 Z M 0.0390625 0.878906 " clip-rule="nonzero"/></clipPath><clipPath id="7c2b527369"><path d="M 0.0390625 11 L 24 11 L 24 40 L 0.0390625 40 Z M 0.0390625 11 " clip-rule="nonzero"/></clipPath><clipPath id="8f5bc00f17"><rect x="0" width="254" y="0" height="52"/></clipPath><clipPath id="ba123f316e"><path d="M 72 50 L 178 50 L 178 78.878906 L 72 78.878906 Z M 72 50 " clip-rule="nonzero"/></clipPath><clipPath id="e241cb4c65"><rect x="0" width="106" y="0" height="29"/></clipPath><clipPath id="d2679dd12a"><rect x="0" width="254" y="0" height="79"/></clipPath></defs><path fill="#a6a6a6" d="M 154.539062 174.386719 L 154.539062 227.246094 L 138.941406 218.246094 L 135.550781 216.296875 L 133.871094 215.308594 L 133.871094 174.386719 Z M 154.539062 174.386719 " fill-opacity="1" fill-rule="nonzero"/><path fill="#a6a6a6" d="M 165.460938 141.085938 L 186.160156 141.085938 L 186.160156 232.765625 L 165.460938 232.765625 Z M 165.460938 141.085938 " fill-opacity="1" fill-rule="nonzero"/><g clip-path="url(#3666285d76)"><path fill="#a6a6a6" d="M 217.75 89.097656 L 217.75 214.945312 L 207.398438 221.097656 L 197.050781 227.277344 L 197.050781 89.097656 Z M 217.75 89.097656 " fill-opacity="1" fill-rule="nonzero"/></g><g clip-path="url(#24281fb22d)"><path fill="#b4b4b4" d="M 234.039062 135.417969 L 233.679688 135.207031 L 230.917969 133.617188 C 229.898438 135.058594 228.757812 136.585938 227.53125 138.207031 L 229.78125 139.527344 L 229.78125 160.527344 C 231.820312 158.335938 233.710938 156.175781 235.449219 154.136719 L 235.449219 137.90625 C 235.449219 136.855469 234.910156 135.925781 234.039062 135.417969 Z M 232.058594 162.777344 C 231.308594 163.558594 230.558594 164.367188 229.78125 165.175781 L 229.78125 201.835938 L 220.71875 207.058594 L 217.75 208.765625 L 197.050781 220.707031 L 194.078125 222.417969 L 186.160156 227.007812 L 176.230469 232.738281 L 175.839844 232.976562 L 175.449219 232.738281 L 165.488281 226.976562 L 154.570312 220.675781 L 146.410156 215.996094 L 143.078125 214.078125 L 139.839844 212.21875 L 133.871094 208.765625 L 130.78125 206.96875 L 127.417969 205.015625 L 124.148438 203.128906 L 121.839844 201.808594 L 121.839844 139.496094 L 175.808594 108.355469 L 194.078125 118.917969 L 194.078125 112.347656 L 177.21875 102.628906 C 176.351562 102.117188 175.269531 102.117188 174.398438 102.628906 L 117.578125 135.417969 C 116.710938 135.925781 116.167969 136.855469 116.167969 137.878906 L 116.167969 203.457031 C 116.167969 204.476562 116.710938 205.40625 117.578125 205.917969 L 119.769531 207.175781 L 123.160156 209.15625 L 131.648438 214.046875 L 132.25 214.378906 L 133.871094 215.308594 L 135.550781 216.265625 L 138.941406 218.21875 L 154.539062 227.246094 L 174.398438 238.707031 C 174.851562 238.945312 175.328125 239.097656 175.808594 239.097656 C 176.289062 239.097656 176.800781 238.976562 177.21875 238.707031 L 197.050781 227.277344 L 209.109375 220.316406 L 217.71875 215.335938 L 220.691406 213.628906 L 234.007812 205.945312 C 234.878906 205.4375 235.417969 204.507812 235.417969 203.488281 L 235.417969 159.027344 C 234.371094 160.257812 233.230469 161.515625 232.058594 162.777344 Z M 232.058594 162.777344 " fill-opacity="1" fill-rule="nonzero"/></g><path fill="#f11414" d="M 258.820312 135.417969 L 251.441406 131.457031 C 250.210938 133.46875 245.289062 142.4375 235.449219 154.105469 C 233.710938 156.175781 231.820312 158.308594 229.78125 160.496094 C 226.238281 164.308594 222.25 168.265625 217.75 172.316406 C 211.78125 177.65625 204.910156 183.117188 197.050781 188.398438 C 193.601562 190.707031 189.96875 193.015625 186.128906 195.238281 C 179.769531 198.925781 172.898438 202.46875 165.429688 205.738281 C 161.917969 207.265625 158.289062 208.765625 154.507812 210.148438 C 150.820312 211.527344 146.980469 212.847656 143.019531 214.078125 C 140.558594 214.855469 138.070312 215.578125 135.519531 216.296875 L 133.839844 215.335938 L 132.21875 214.40625 L 131.621094 214.078125 L 123.128906 209.1875 L 119.769531 207.175781 C 120.128906 207.085938 120.519531 206.996094 120.878906 206.878906 C 123.101562 206.277344 125.257812 205.675781 127.417969 205.046875 C 129.609375 204.386719 131.769531 203.726562 133.871094 203.007812 C 141.21875 200.578125 148.089844 197.878906 154.570312 194.96875 C 158.351562 193.257812 161.980469 191.488281 165.488281 189.65625 C 173.050781 185.695312 179.917969 181.496094 186.191406 177.207031 C 190.058594 174.539062 193.691406 171.808594 197.109375 169.105469 C 205.328125 162.539062 212.167969 155.9375 217.808594 149.816406 C 221.621094 145.648438 224.859375 141.746094 227.589844 138.207031 C 228.820312 136.585938 229.960938 135.058594 230.980469 133.617188 C 233.621094 129.925781 235.570312 126.835938 236.890625 124.675781 C 237.070312 124.40625 237.21875 124.136719 237.371094 123.867188 L 234.699219 122.425781 L 232.539062 121.289062 L 229.359375 119.578125 L 230.230469 119.039062 L 255.667969 103.257812 L 257.738281 101.96875 L 257.859375 105.566406 Z M 258.820312 135.417969 " fill-opacity="1" fill-rule="nonzero"/><g transform="matrix(1, 0, 0, 1, 65, 236)"><g clip-path="url(#d2679dd12a)"><g clip-path="url(#51ebe7705d)"><g transform="matrix(1, 0, 0, 1, -0.000000000000014211, 0)"><g clip-path="url(#8f5bc00f17)"><g clip-path="url(#7c2b527369)"><g fill="#b4b4b4" fill-opacity="1"><g transform="translate(0.351438, 39.896907)"><g><path d="M 14.703125 -22.90625 L 14.703125 0 L 8.375 0 L 8.375 -22.90625 L 0.203125 -22.90625 L 0.203125 -28.640625 L 22.859375 -28.640625 L 22.859375 -22.90625 Z M 14.703125 -22.90625 "/></g></g></g></g><g fill="#b4b4b4" fill-opacity="1"><g transform="translate(31.850603, 39.896907)"><g><path d="M 8.84375 -10.234375 L 8.84375 0 L 2.53125 0 L 2.53125 -28.640625 L 13.265625 -28.640625 C 14.804688 -28.640625 16.242188 -28.25 17.578125 -27.46875 C 18.910156 -26.695312 19.984375 -25.625 20.796875 -24.25 C 21.609375 -22.875 22.015625 -21.273438 22.015625 -19.453125 C 22.015625 -17.847656 21.71875 -16.425781 21.125 -15.1875 C 20.539062 -13.957031 19.757812 -12.945312 18.78125 -12.15625 C 17.800781 -11.375 16.707031 -10.832031 15.5 -10.53125 L 23.703125 0 L 15.703125 0 L 8.890625 -10.234375 Z M 12.21875 -23.671875 L 8.84375 -23.671875 L 8.84375 -15.203125 L 12.21875 -15.203125 C 13.132812 -15.203125 13.992188 -15.566406 14.796875 -16.296875 C 15.597656 -17.023438 16 -18.078125 16 -19.453125 C 16 -20.773438 15.597656 -21.804688 14.796875 -22.546875 C 13.992188 -23.296875 13.132812 -23.671875 12.21875 -23.671875 Z M 12.21875 -23.671875 "/></g></g></g><g fill="#b4b4b4" fill-opacity="1"><g transform="translate(63.476087, 39.896907)"><g><path d="M 18.109375 -10.953125 L 14.484375 -21.140625 L 10.859375 -10.953125 Z M 28.796875 0 L 22.015625 0 L 19.953125 -5.765625 L 9.046875 -5.765625 L 6.984375 0 L 0.203125 0 L 11.828125 -28.640625 L 17.1875 -28.640625 Z M 28.796875 0 "/></g></g></g><g fill="#b4b4b4" fill-opacity="1"><g transform="translate(100.912552, 39.896907)"><g><path d="M 8.84375 0 L 2.53125 0 L 2.53125 -28.640625 L 8.84375 -28.640625 Z M 8.84375 0 "/></g></g></g><g fill="#b4b4b4" fill-opacity="1"><g transform="translate(120.705534, 39.896907)"><g><path d="M 8.765625 -5.8125 L 10.65625 -5.8125 C 12.28125 -5.8125 13.703125 -6.1875 14.921875 -6.9375 C 16.148438 -7.695312 17.109375 -8.722656 17.796875 -10.015625 C 18.484375 -11.304688 18.828125 -12.738281 18.828125 -14.3125 C 18.828125 -15.914062 18.484375 -17.351562 17.796875 -18.625 C 17.109375 -19.90625 16.148438 -20.914062 14.921875 -21.65625 C 13.703125 -22.40625 12.28125 -22.78125 10.65625 -22.78125 L 8.765625 -22.78125 Z M 2.53125 -28.640625 L 11.03125 -28.640625 C 13.050781 -28.640625 14.925781 -28.269531 16.65625 -27.53125 C 18.382812 -26.800781 19.894531 -25.789062 21.1875 -24.5 C 22.476562 -23.21875 23.476562 -21.703125 24.1875 -19.953125 C 24.90625 -18.210938 25.265625 -16.332031 25.265625 -14.3125 C 25.265625 -12.289062 24.90625 -10.410156 24.1875 -8.671875 C 23.476562 -6.929688 22.484375 -5.414062 21.203125 -4.125 C 19.921875 -2.832031 18.410156 -1.820312 16.671875 -1.09375 C 14.929688 -0.363281 13.050781 0 11.03125 0 L 2.53125 0 Z M 2.53125 -28.640625 "/></g></g></g><g fill="#b4b4b4" fill-opacity="1"><g transform="translate(155.868136, 39.896907)"><g><path d="M 8.84375 0 L 2.53125 0 L 2.53125 -28.640625 L 8.84375 -28.640625 Z M 8.84375 0 "/></g></g></g><g fill="#b4b4b4" fill-opacity="1"><g transform="translate(175.661118, 39.896907)"><g><path d="M 25.015625 0 L 18.703125 0 L 8.84375 -17.859375 L 8.84375 0 L 2.53125 0 L 2.53125 -28.640625 L 8.84375 -28.640625 L 18.703125 -10.78125 L 18.703125 -28.640625 L 25.015625 -28.640625 Z M 25.015625 0 "/></g></g></g><g fill="#b4b4b4" fill-opacity="1"><g transform="translate(211.62378, 39.896907)"><g><path d="M 16.84375 -23.15625 C 15.320312 -23.15625 13.929688 -22.75 12.671875 -21.9375 C 11.410156 -21.125 10.398438 -20.039062 9.640625 -18.6875 C 8.878906 -17.34375 8.5 -15.859375 8.5 -14.234375 C 8.5 -12.628906 8.878906 -11.144531 9.640625 -9.78125 C 10.398438 -8.425781 11.410156 -7.34375 12.671875 -6.53125 C 13.929688 -5.71875 15.320312 -5.3125 16.84375 -5.3125 C 17.769531 -5.3125 18.742188 -5.441406 19.765625 -5.703125 C 20.796875 -5.972656 21.75 -6.484375 22.625 -7.234375 C 23.507812 -7.992188 24.207031 -9.09375 24.71875 -10.53125 L 17.4375 -10.53125 L 17.4375 -15.28125 L 31.546875 -15.28125 L 31.546875 -14.3125 C 31.546875 -12.289062 31.164062 -10.390625 30.40625 -8.609375 C 29.644531 -6.828125 28.585938 -5.253906 27.234375 -3.890625 C 25.890625 -2.535156 24.332031 -1.476562 22.5625 -0.71875 C 20.800781 0.0390625 18.894531 0.421875 16.84375 0.421875 C 14.820312 0.421875 12.921875 0.0351562 11.140625 -0.734375 C 9.359375 -1.503906 7.789062 -2.5625 6.4375 -3.90625 C 5.09375 -5.257812 4.035156 -6.828125 3.265625 -8.609375 C 2.492188 -10.390625 2.109375 -12.289062 2.109375 -14.3125 C 2.109375 -16.332031 2.492188 -18.234375 3.265625 -20.015625 C 4.035156 -21.804688 5.09375 -23.375 6.4375 -24.71875 C 7.789062 -26.0625 9.359375 -27.117188 11.140625 -27.890625 C 12.921875 -28.671875 14.820312 -29.0625 16.84375 -29.0625 C 18.945312 -29.0625 20.9375 -28.628906 22.8125 -27.765625 C 24.695312 -26.910156 26.34375 -25.734375 27.75 -24.234375 C 29.15625 -22.734375 30.179688 -20.984375 30.828125 -18.984375 L 23.875 -18.984375 C 23.175781 -20.503906 22.179688 -21.578125 20.890625 -22.203125 C 19.597656 -22.835938 18.25 -23.15625 16.84375 -23.15625 Z M 16.84375 -23.15625 "/></g></g></g></g></g></g><g clip-path="url(#ba123f316e)"><g transform="matrix(1, 0, 0, 1, 72, 50)"><g clip-path="url(#e241cb4c65)"><g fill="#b4b4b4" fill-opacity="1"><g transform="translate(0.664103, 22.808055)"><g><path d="M 10.15625 -15.90625 L 13.890625 -15.90625 L 13.890625 0 L 10.15625 0 L 10.15625 -6.390625 L 4.90625 -6.390625 L 4.90625 0 L 1.40625 0 L 1.40625 -15.90625 L 4.90625 -15.90625 L 4.90625 -9.5625 L 10.15625 -9.5625 Z M 10.15625 -15.90625 "/></g></g></g><g fill="#b4b4b4" fill-opacity="1"><g transform="translate(20.641387, 22.808055)"><g><path d="M 10.625 -3.1875 L 10.625 0 L 1.40625 0 L 1.40625 -15.90625 L 10.625 -15.90625 L 10.625 -12.71875 L 4.90625 -12.71875 L 4.90625 -9.5625 L 10.390625 -9.5625 L 10.390625 -6.390625 L 4.90625 -6.390625 L 4.90625 -3.1875 Z M 10.625 -3.1875 "/></g></g></g><g fill="#b4b4b4" fill-opacity="1"><g transform="translate(37.34398, 22.808055)"><g><path d="M 1.40625 0 L 1.40625 -15.90625 L 4.90625 -15.90625 L 4.90625 -3.1875 L 10.625 -3.1875 L 10.625 0 Z M 1.40625 0 "/></g></g></g><g fill="#b4b4b4" fill-opacity="1"><g transform="translate(53.461802, 22.808055)"><g><path d="M 4.90625 -5.6875 L 4.90625 0 L 1.40625 0 L 1.40625 -15.90625 L 7.375 -15.90625 C 8.226562 -15.90625 9.023438 -15.691406 9.765625 -15.265625 C 10.503906 -14.835938 11.097656 -14.238281 11.546875 -13.46875 C 12.003906 -12.707031 12.234375 -11.820312 12.234375 -10.8125 C 12.234375 -9.726562 12.003906 -8.804688 11.546875 -8.046875 C 11.097656 -7.285156 10.503906 -6.703125 9.765625 -6.296875 C 9.023438 -5.890625 8.226562 -5.6875 7.375 -5.6875 Z M 6.78125 -13.140625 L 4.90625 -13.140625 L 4.90625 -8.4375 L 6.78125 -8.4375 C 7.300781 -8.4375 7.78125 -8.640625 8.21875 -9.046875 C 8.664062 -9.453125 8.890625 -10.039062 8.890625 -10.8125 C 8.890625 -11.539062 8.664062 -12.109375 8.21875 -12.515625 C 7.78125 -12.929688 7.300781 -13.140625 6.78125 -13.140625 Z M 6.78125 -13.140625 "/></g></g></g><g fill="#b4b4b4" fill-opacity="1"><g transform="translate(70.725773, 22.808055)"><g><path d="M 10.625 -3.1875 L 10.625 0 L 1.40625 0 L 1.40625 -15.90625 L 10.625 -15.90625 L 10.625 -12.71875 L 4.90625 -12.71875 L 4.90625 -9.5625 L 10.390625 -9.5625 L 10.390625 -6.390625 L 4.90625 -6.390625 L 4.90625 -3.1875 Z M 10.625 -3.1875 "/></g></g></g><g fill="#b4b4b4" fill-opacity="1"><g transform="translate(87.428366, 22.808055)"><g><path d="M 4.90625 -5.6875 L 4.90625 0 L 1.40625 0 L 1.40625 -15.90625 L 7.375 -15.90625 C 8.226562 -15.90625 9.023438 -15.691406 9.765625 -15.265625 C 10.503906 -14.835938 11.097656 -14.238281 11.546875 -13.46875 C 12.003906 -12.707031 12.234375 -11.820312 12.234375 -10.8125 C 12.234375 -9.914062 12.066406 -9.125 11.734375 -8.4375 C 11.410156 -7.757812 10.972656 -7.203125 10.421875 -6.765625 C 9.878906 -6.328125 9.273438 -6.019531 8.609375 -5.84375 L 13.171875 0 L 8.71875 0 L 4.9375 -5.6875 Z M 6.78125 -13.140625 L 4.90625 -13.140625 L 4.90625 -8.4375 L 6.78125 -8.4375 C 7.300781 -8.4375 7.78125 -8.640625 8.21875 -9.046875 C 8.664062 -9.453125 8.890625 -10.039062 8.890625 -10.8125 C 8.890625 -11.539062 8.664062 -12.109375 8.21875 -12.515625 C 7.78125 -12.929688 7.300781 -13.140625 6.78125 -13.140625 Z M 6.78125 -13.140625 "/></g></g></g></g></g></g></g></g></svg>